<svg viewBox="0 0 980 170" xmlns="http://www.w3.org/2000/svg" role="img" aria-label="Поток cost_daily">
  <defs><marker id="ah-cd" viewBox="0 0 10 10" refX="9" refY="5" markerWidth="7" markerHeight="7" orient="auto"><path class="head" d="M0,0L10,5L0,10z"/></marker></defs>
  <rect x="10" y="30" width="200" height="90" rx="10" class="box fsrc src"/><text x="24" y="54" font-weight="650">retail_cost</text><text x="24" y="74" class="t2 mono">product_costs</text><text x="24" y="90" class="t2 mono">⨝ products (uid)</text><text x="24" y="108" class="t3">обновляется раз в сутки</text>
  <rect x="255" y="30" width="200" height="90" rx="10" class="box fsrc src2"/><text x="269" y="54" font-weight="650">группа retail</text><text x="269" y="74" class="t2">партиция месяца</text><text x="269" y="90" class="t2">сверка отпечатков</text><text x="269" y="108" class="t3 mono">toYYYYMM(date)</text>
  <rect x="500" y="30" width="210" height="90" rx="10" class="box ftr tr"/><text x="514" y="54" font-weight="650">lookup dim_product</text><text x="514" y="74" class="t2 mono">nomenklatura_guid → id</text><text x="514" y="90" class="t3">через _raw staging</text>
  <rect x="755" y="30" width="215" height="90" rx="10" class="box fld ld"/><text x="769" y="54" font-weight="650">cost_daily</text><text x="769" y="74" class="t2 mono">date · nomenklatura_id</text><text x="769" y="90" class="t2 mono">type · price_full</text><text x="769" y="108" class="t3">→ Power BI Average Cost</text>
  <path class="edge" d="M210,75 H253" marker-end="url(#ah-cd)"/><path class="edge" d="M455,75 H498" marker-end="url(#ah-cd)"/><path class="edge" d="M710,75 H753" marker-end="url(#ah-cd)"/>
  <text x="10" y="150" class="t3">type: 1 = Эврика · 2 = Монобренд — разные контуры, не смешиваются (логика владельца проекта)</text>
</svg>
